<?xml version="1.0" encoding="utf-8" ?>
<svg baseProfile="tiny" height="546" version="1.2" width="572" xmlns="http://www.w3.org/2000/svg" xmlns:ev="http://www.w3.org/2001/xml-events" xmlns:xlink="http://www.w3.org/1999/xlink"><defs><linearGradient id="IconifyId1813088fe1fbc01fb466" x1="0" x2="0.5764" y1="0.0765" y2="0.7841"><stop offset="0" stop-color="#41D1FF" /><stop offset="1" stop-color="#BD34FE" /></linearGradient></defs><path d="M306,383 L305,384 L303,384 L302,385 L300,385 L299,386 L298,386 L296,388 L295,388 L288,395 L288,396 L286,398 L286,399 L285,400 L285,402 L284,403 L284,405 L283,406 L283,420 L284,421 L284,423 L285,424 L285,425 L286,426 L286,427 L287,428 L287,431 L282,436 L282,437 L277,442 L277,443 L273,447 L273,448 L268,453 L268,454 L263,459 L263,460 L258,465 L258,466 L254,470 L254,471 L249,476 L249,477 L245,481 L245,482 L241,486 L241,487 L239,489 L239,490 L237,492 L237,495 L238,494 L239,495 L239,497 L240,496 L241,497 L241,499 L242,498 L243,499 L243,501 L244,500 L245,501 L245,503 L246,502 L247,503 L247,504 L253,498 L253,497 L260,490 L260,489 L266,483 L266,482 L272,476 L272,475 L278,469 L278,468 L283,463 L283,462 L289,456 L289,455 L294,450 L294,449 L299,444 L299,443 L301,441 L302,441 L303,442 L306,442 L307,443 L319,443 L320,442 L323,442 L324,441 L325,441 L326,440 L327,440 L328,439 L329,439 L330,438 L331,438 L338,431 L338,430 L340,428 L340,427 L341,426 L341,425 L342,424 L342,422 L343,421 L343,406 L342,405 L342,403 L341,402 L341,400 L340,399 L340,398 L338,396 L338,395 L331,388 L330,388 L328,386 L327,386 L326,385 L324,385 L323,384 L321,384 L320,383 Z" fill="url(#IconifyId1813088fe1fbc01fb466)" stroke="none" /><path d="M260,250 L259,251 L256,251 L255,252 L254,252 L253,253 L252,253 L251,254 L250,254 L249,255 L248,255 L241,262 L241,263 L239,265 L239,266 L238,267 L238,268 L237,269 L237,271 L236,272 L236,275 L235,276 L235,285 L236,286 L236,289 L237,290 L237,292 L238,293 L238,294 L239,295 L239,296 L240,297 L239,298 L239,299 L233,305 L233,306 L229,310 L229,311 L224,316 L224,317 L219,322 L219,323 L214,328 L214,329 L209,334 L209,335 L204,340 L204,341 L199,346 L199,347 L195,351 L195,352 L190,357 L190,358 L185,363 L185,364 L181,368 L181,369 L176,374 L176,375 L171,380 L171,381 L167,385 L167,386 L163,390 L163,391 L158,396 L158,397 L155,400 L155,401 L151,405 L151,409 L152,408 L153,409 L153,411 L154,410 L155,411 L155,413 L156,412 L157,413 L157,415 L158,414 L159,415 L159,417 L160,416 L161,417 L161,418 L166,413 L166,412 L172,406 L172,405 L178,399 L178,398 L183,393 L183,392 L189,386 L189,385 L194,380 L194,379 L200,373 L200,372 L205,367 L205,366 L211,360 L211,359 L216,354 L216,353 L221,348 L221,347 L226,342 L226,341 L232,335 L232,334 L237,329 L237,328 L242,323 L242,322 L247,317 L247,316 L254,309 L256,309 L257,310 L261,310 L262,311 L269,311 L270,310 L274,310 L275,309 L277,309 L278,308 L279,308 L280,307 L281,307 L283,305 L284,305 L291,298 L291,297 L292,296 L292,295 L293,294 L293,293 L294,292 L294,291 L295,290 L295,287 L296,286 L296,275 L295,274 L295,271 L294,270 L294,269 L293,268 L293,266 L291,264 L291,263 L288,260 L288,259 L286,257 L285,257 L283,255 L282,255 L280,253 L279,253 L278,252 L276,252 L275,251 L272,251 L271,250 Z" fill="url(#IconifyId1813088fe1fbc01fb466)" stroke="none" /><path d="M403,174 L402,175 L399,175 L398,176 L396,176 L395,177 L394,177 L393,178 L392,178 L390,180 L389,180 L384,185 L384,186 L382,188 L382,189 L380,191 L380,193 L379,194 L379,196 L378,197 L378,201 L377,202 L377,207 L378,208 L378,212 L379,213 L379,215 L380,216 L380,218 L381,219 L381,220 L382,221 L382,222 L377,227 L377,228 L372,233 L372,234 L367,239 L367,240 L362,245 L362,246 L357,251 L357,252 L352,257 L352,258 L347,263 L347,264 L342,269 L342,270 L337,275 L337,276 L332,281 L332,282 L327,287 L327,288 L322,293 L322,294 L317,299 L317,300 L312,305 L312,306 L306,312 L306,313 L301,318 L301,319 L296,324 L296,325 L291,330 L291,331 L286,336 L286,337 L281,342 L281,343 L276,348 L276,349 L271,354 L271,355 L266,360 L266,361 L261,366 L261,367 L257,371 L257,372 L252,377 L252,378 L247,383 L247,384 L242,389 L242,390 L237,395 L237,396 L232,401 L232,402 L227,407 L227,408 L223,412 L223,413 L218,418 L218,419 L214,423 L214,424 L209,429 L209,430 L205,434 L205,435 L201,439 L201,440 L198,443 L198,444 L195,447 L195,448 L193,450 L193,451 L194,450 L195,451 L195,453 L196,452 L197,453 L197,455 L198,454 L199,455 L199,457 L200,456 L201,457 L201,459 L202,458 L203,459 L203,461 L204,460 L205,460 L205,459 L215,449 L215,448 L220,443 L220,442 L226,436 L226,435 L232,429 L232,428 L237,423 L237,422 L243,416 L243,415 L248,410 L248,409 L254,403 L254,402 L259,397 L259,396 L264,391 L264,390 L269,385 L269,384 L275,378 L275,377 L280,372 L280,371 L285,366 L285,365 L290,360 L290,359 L295,354 L295,353 L300,348 L300,347 L306,341 L306,340 L311,335 L311,334 L316,329 L316,328 L321,323 L321,322 L326,317 L326,316 L331,311 L331,310 L336,305 L336,304 L342,298 L342,297 L347,292 L347,291 L352,286 L352,285 L357,280 L357,279 L362,274 L362,273 L367,268 L367,267 L372,262 L372,261 L378,255 L378,254 L383,249 L383,248 L388,243 L388,242 L393,237 L393,236 L396,233 L397,233 L398,234 L401,234 L402,235 L413,235 L414,234 L417,234 L418,233 L420,233 L421,232 L422,232 L423,231 L424,231 L426,229 L427,229 L432,224 L432,223 L434,221 L434,220 L435,219 L435,218 L436,217 L436,216 L437,215 L437,213 L438,212 L438,198 L437,197 L437,195 L436,194 L436,192 L435,191 L435,190 L434,189 L434,188 L431,185 L431,184 L428,181 L427,181 L425,179 L424,179 L422,177 L421,177 L420,176 L418,176 L417,175 L414,175 L413,174 Z" fill="url(#IconifyId1813088fe1fbc01fb466)" stroke="none" /><path d="M294,35 L293,36 L282,36 L281,37 L272,37 L271,38 L265,38 L264,39 L259,39 L258,40 L254,40 L253,41 L249,41 L248,42 L244,42 L243,43 L240,43 L239,44 L236,44 L235,45 L232,45 L231,46 L229,46 L228,47 L225,47 L224,48 L222,48 L221,49 L219,49 L218,50 L216,50 L215,51 L213,51 L212,52 L211,52 L210,53 L208,53 L207,54 L205,54 L204,55 L203,55 L202,56 L200,56 L199,57 L198,57 L197,58 L196,58 L195,59 L194,59 L193,60 L191,60 L190,61 L189,61 L188,62 L187,62 L185,64 L184,64 L183,65 L182,65 L181,66 L180,66 L179,67 L178,67 L177,68 L176,68 L174,70 L173,70 L172,71 L171,71 L169,73 L168,73 L167,74 L166,74 L164,76 L163,76 L160,79 L159,79 L157,81 L156,81 L152,85 L151,85 L146,90 L145,90 L126,109 L126,110 L122,114 L122,115 L118,119 L118,120 L116,122 L116,123 L113,126 L113,127 L111,129 L111,130 L110,131 L110,132 L108,134 L108,135 L106,137 L106,138 L105,139 L105,140 L104,141 L104,142 L103,143 L103,144 L102,145 L102,146 L101,147 L101,148 L100,149 L100,150 L99,151 L99,152 L98,153 L98,155 L97,156 L97,157 L96,158 L96,160 L95,161 L95,162 L94,163 L94,165 L93,166 L93,168 L92,169 L92,171 L91,172 L91,174 L90,175 L90,178 L89,179 L89,181 L88,182 L88,186 L87,187 L87,191 L86,192 L86,196 L85,197 L85,204 L84,205 L84,217 L83,218 L83,230 L84,231 L84,244 L85,245 L85,252 L86,253 L86,261 L87,262 L87,266 L86,267 L86,269 L85,270 L85,272 L84,273 L84,274 L83,275 L83,277 L82,278 L82,280 L81,281 L81,282 L80,283 L80,285 L79,286 L79,287 L78,288 L78,290 L77,291 L77,293 L76,294 L76,295 L75,296 L75,298 L74,299 L74,301 L73,302 L73,303 L72,304 L72,306 L71,307 L71,309 L70,310 L70,311 L69,312 L69,314 L68,315 L68,317 L67,318 L67,320 L66,321 L66,323 L67,323 L68,324 L68,325 L69,325 L70,326 L70,327 L71,327 L72,328 L72,329 L73,329 L74,330 L74,331 L75,331 L76,332 L76,333 L77,333 L78,334 L78,333 L79,332 L79,330 L80,329 L80,328 L81,327 L81,326 L82,325 L82,323 L83,322 L83,321 L84,320 L84,318 L85,317 L85,316 L86,315 L86,313 L87,312 L87,311 L88,310 L88,308 L89,307 L89,306 L90,305 L90,303 L91,302 L91,301 L92,300 L92,298 L93,297 L93,296 L94,295 L94,293 L95,292 L95,291 L96,290 L96,288 L97,287 L97,286 L98,285 L98,283 L99,282 L99,281 L100,280 L100,278 L101,277 L101,276 L102,275 L102,273 L103,272 L103,252 L102,251 L102,245 L101,244 L101,230 L100,229 L100,222 L101,221 L101,208 L102,207 L102,201 L103,200 L103,195 L104,194 L104,190 L105,189 L105,186 L106,185 L106,183 L107,182 L107,179 L108,178 L108,176 L109,175 L109,173 L110,172 L110,170 L111,169 L111,168 L112,167 L112,165 L113,164 L113,163 L114,162 L114,160 L115,159 L115,158 L116,157 L116,156 L117,155 L117,154 L118,153 L118,152 L119,151 L119,150 L121,148 L121,147 L122,146 L122,145 L123,144 L123,143 L125,141 L125,140 L127,138 L127,137 L129,135 L129,134 L132,131 L132,130 L135,127 L135,126 L140,121 L140,120 L155,105 L156,105 L162,99 L163,99 L166,96 L167,96 L170,93 L171,93 L173,91 L174,91 L176,89 L177,89 L179,87 L180,87 L181,86 L182,86 L183,85 L184,85 L186,83 L187,83 L188,82 L189,82 L190,81 L191,81 L192,80 L193,80 L195,78 L196,78 L197,77 L198,77 L199,76 L201,76 L202,75 L203,75 L204,74 L205,74 L206,73 L207,73 L208,72 L210,72 L211,71 L212,71 L213,70 L215,70 L216,69 L218,69 L219,68 L220,68 L221,67 L223,67 L224,66 L227,66 L228,65 L230,65 L231,64 L233,64 L234,63 L237,63 L238,62 L240,62 L241,61 L244,61 L245,60 L249,60 L250,59 L253,59 L254,58 L259,58 L260,57 L264,57 L265,56 L271,56 L272,55 L278,55 L279,54 L289,54 L290,53 L332,53 L333,54 L341,54 L342,55 L348,55 L349,56 L355,56 L356,57 L360,57 L361,58 L365,58 L366,59 L370,59 L371,60 L373,60 L374,61 L377,61 L378,62 L380,62 L381,63 L383,63 L384,64 L387,64 L388,65 L390,65 L391,66 L392,66 L393,67 L395,67 L396,68 L398,68 L399,69 L400,69 L401,70 L403,70 L404,71 L405,71 L406,72 L407,72 L408,73 L409,73 L410,74 L411,74 L412,75 L413,75 L414,76 L415,76 L416,77 L417,77 L418,78 L419,78 L420,79 L421,79 L423,81 L424,81 L425,82 L426,82 L427,83 L428,83 L430,85 L431,85 L433,87 L434,87 L436,89 L437,89 L439,91 L440,91 L443,94 L444,94 L447,97 L448,97 L452,101 L453,101 L471,119 L471,120 L476,125 L476,126 L479,129 L479,130 L481,132 L481,133 L483,135 L483,136 L485,138 L485,139 L487,141 L487,142 L488,143 L488,144 L489,145 L489,146 L490,147 L490,148 L492,150 L492,151 L493,152 L493,153 L494,154 L494,155 L495,156 L495,158 L496,159 L496,160 L497,161 L497,162 L498,163 L498,165 L499,166 L499,167 L500,168 L500,170 L501,171 L501,173 L502,174 L502,176 L503,177 L503,179 L504,180 L504,183 L505,184 L505,187 L506,188 L506,192 L507,193 L507,197 L508,198 L508,203 L509,204 L509,212 L510,213 L510,242 L509,243 L509,253 L508,254 L508,259 L507,260 L507,265 L506,266 L506,269 L505,270 L505,273 L504,274 L504,277 L503,278 L503,280 L502,281 L502,283 L501,284 L501,286 L500,287 L500,288 L499,289 L499,291 L498,292 L498,293 L497,294 L497,295 L496,296 L496,297 L495,298 L495,299 L494,300 L494,302 L492,304 L492,305 L491,306 L491,307 L490,308 L490,309 L489,310 L489,311 L487,313 L487,314 L485,316 L485,317 L483,319 L483,320 L481,322 L481,323 L479,325 L479,326 L476,329 L476,330 L472,334 L472,335 L465,342 L465,343 L440,368 L439,368 L430,377 L429,377 L423,383 L422,383 L415,390 L414,390 L411,393 L411,499 L410,500 L405,500 L404,501 L383,501 L382,500 L382,379 L386,375 L387,375 L392,370 L393,370 L400,363 L401,363 L408,356 L409,356 L416,349 L417,349 L446,320 L446,319 L451,314 L451,313 L454,310 L454,309 L457,306 L457,305 L459,303 L459,302 L461,300 L461,299 L462,298 L462,297 L464,295 L464,294 L465,293 L465,292 L466,291 L466,290 L467,289 L467,288 L468,287 L468,286 L469,285 L469,284 L470,283 L470,282 L471,281 L471,279 L472,278 L472,277 L473,276 L473,274 L474,273 L474,271 L475,270 L475,268 L476,267 L476,264 L477,263 L477,260 L478,259 L478,255 L479,254 L479,247 L480,246 L480,235 L481,234 L481,221 L480,220 L480,209 L479,208 L479,202 L478,201 L478,197 L477,196 L477,193 L476,192 L476,189 L475,188 L475,186 L474,185 L474,182 L473,181 L473,180 L472,179 L472,177 L471,176 L471,175 L470,174 L470,172 L469,171 L469,170 L468,169 L468,168 L467,167 L467,166 L466,165 L466,164 L465,163 L465,162 L464,161 L464,160 L463,159 L463,158 L461,156 L461,155 L459,153 L459,152 L457,150 L457,149 L455,147 L455,146 L452,143 L452,142 L447,137 L447,136 L438,127 L437,127 L431,121 L430,121 L426,117 L425,117 L422,114 L421,114 L419,112 L418,112 L416,110 L415,110 L414,109 L413,109 L411,107 L410,107 L409,106 L408,106 L407,105 L406,105 L404,103 L403,103 L402,102 L401,102 L400,101 L399,101 L398,100 L397,100 L396,99 L394,99 L393,98 L392,98 L391,97 L390,97 L389,96 L387,96 L386,95 L384,95 L383,94 L381,94 L380,93 L379,93 L378,92 L376,92 L375,91 L373,91 L372,90 L369,90 L368,89 L365,89 L364,88 L361,88 L360,87 L357,87 L356,86 L352,86 L351,85 L346,85 L345,84 L337,84 L336,83 L324,83 L323,82 L301,82 L300,83 L286,83 L285,84 L278,84 L277,85 L271,85 L270,86 L265,86 L264,87 L260,87 L259,88 L255,88 L254,89 L251,89 L250,90 L247,90 L246,91 L243,91 L242,92 L240,92 L239,93 L237,93 L236,94 L234,94 L233,95 L231,95 L230,96 L228,96 L227,97 L225,97 L224,98 L223,98 L222,99 L220,99 L219,100 L218,100 L217,101 L216,101 L215,102 L214,102 L213,103 L212,103 L211,104 L210,104 L209,105 L208,105 L207,106 L206,106 L205,107 L204,107 L203,108 L202,108 L201,109 L200,109 L199,110 L198,110 L196,112 L195,112 L194,113 L193,113 L191,115 L190,115 L188,117 L187,117 L184,120 L183,120 L179,124 L178,124 L161,141 L161,142 L157,146 L157,147 L154,150 L154,151 L152,153 L152,154 L150,156 L150,157 L149,158 L149,159 L147,161 L147,162 L146,163 L146,164 L145,165 L145,166 L144,167 L144,168 L143,169 L143,170 L142,171 L142,172 L141,173 L141,174 L140,175 L140,177 L139,178 L139,180 L138,181 L138,183 L137,184 L137,186 L136,187 L136,189 L135,190 L135,193 L134,194 L134,197 L133,198 L133,202 L132,203 L132,209 L131,210 L131,241 L132,242 L132,247 L133,248 L133,256 L134,257 L134,276 L133,277 L133,279 L132,280 L132,281 L131,282 L131,284 L130,285 L130,286 L129,287 L129,289 L128,290 L128,292 L127,293 L127,294 L126,295 L126,297 L125,298 L125,300 L124,301 L124,302 L123,303 L123,305 L122,306 L122,307 L121,308 L121,310 L120,311 L120,313 L119,314 L119,315 L118,316 L118,318 L117,319 L117,321 L116,322 L116,323 L115,324 L115,326 L114,327 L114,328 L113,329 L113,331 L112,332 L112,334 L111,335 L111,336 L110,337 L110,339 L109,340 L109,342 L108,343 L108,344 L107,345 L107,347 L106,348 L106,350 L105,351 L105,353 L104,354 L104,355 L105,356 L105,357 L108,360 L109,360 L110,361 L111,361 L113,363 L114,363 L115,364 L116,364 L117,365 L118,365 L119,366 L122,366 L128,360 L128,359 L134,353 L134,352 L140,346 L140,345 L146,339 L146,338 L151,333 L151,332 L156,327 L156,326 L162,320 L162,319 L167,314 L167,313 L173,307 L173,306 L178,301 L178,300 L183,295 L183,294 L189,288 L189,287 L194,282 L194,281 L199,276 L199,275 L204,270 L204,269 L209,264 L209,263 L214,258 L214,257 L219,252 L219,251 L225,245 L225,244 L230,239 L230,238 L235,233 L235,232 L240,227 L240,226 L245,221 L245,220 L250,215 L250,214 L256,208 L256,207 L261,202 L261,201 L266,196 L266,195 L271,190 L271,189 L276,184 L276,183 L281,178 L281,177 L282,176 L283,176 L284,177 L287,177 L288,178 L300,178 L301,177 L304,177 L305,176 L306,176 L307,175 L308,175 L309,174 L310,174 L311,173 L312,173 L319,166 L319,165 L321,163 L321,162 L322,161 L322,160 L323,159 L323,157 L324,156 L324,150 L325,149 L325,146 L324,145 L324,140 L323,139 L323,137 L322,136 L322,135 L321,134 L321,133 L320,132 L320,131 L318,129 L318,128 L315,125 L314,125 L311,122 L310,122 L308,120 L306,120 L305,119 L304,119 L303,118 L299,118 L298,117 L291,117 L290,118 L286,118 L285,119 L283,119 L282,120 L281,120 L280,121 L279,121 L278,122 L277,122 L274,125 L273,125 L270,128 L270,129 L268,131 L268,132 L267,133 L267,134 L266,135 L266,136 L265,137 L265,139 L264,140 L264,147 L263,148 L264,149 L264,155 L265,156 L265,158 L266,159 L266,160 L267,161 L267,162 L268,163 L268,165 L266,167 L266,168 L261,173 L261,174 L256,179 L256,180 L250,186 L250,187 L245,192 L245,193 L240,198 L240,199 L235,204 L235,205 L230,210 L230,211 L225,216 L225,217 L221,221 L221,222 L215,228 L215,229 L210,234 L210,235 L205,240 L205,241 L201,245 L201,246 L195,252 L195,253 L190,258 L190,259 L186,263 L186,264 L181,269 L181,270 L176,275 L176,276 L171,281 L171,282 L166,287 L166,288 L162,292 L162,293 L157,298 L157,299 L152,304 L152,305 L147,310 L147,311 L142,316 L142,317 L138,321 L138,322 L136,324 L135,324 L134,323 L134,321 L135,320 L135,319 L136,318 L136,316 L137,315 L137,314 L138,313 L138,311 L139,310 L139,309 L140,308 L140,306 L141,305 L141,304 L142,303 L142,301 L143,300 L143,299 L144,298 L144,296 L145,295 L145,294 L146,293 L146,291 L147,290 L147,288 L148,287 L148,286 L149,285 L149,283 L150,282 L150,281 L151,280 L151,278 L152,277 L152,276 L151,275 L151,253 L150,252 L150,245 L149,244 L149,237 L148,236 L148,215 L149,214 L149,207 L150,206 L150,202 L151,201 L151,198 L152,197 L152,194 L153,193 L153,191 L154,190 L154,188 L155,187 L155,185 L156,184 L156,183 L157,182 L157,181 L158,180 L158,178 L159,177 L159,176 L160,175 L160,174 L161,173 L161,172 L163,170 L163,169 L164,168 L164,167 L166,165 L166,164 L168,162 L168,161 L170,159 L170,158 L175,153 L175,152 L188,139 L189,139 L194,134 L195,134 L197,132 L198,132 L200,130 L201,130 L203,128 L204,128 L206,126 L207,126 L208,125 L209,125 L211,123 L212,123 L213,122 L214,122 L215,121 L216,121 L217,120 L218,120 L219,119 L220,119 L221,118 L222,118 L223,117 L225,117 L226,116 L227,116 L228,115 L230,115 L231,114 L232,114 L233,113 L235,113 L236,112 L238,112 L239,111 L241,111 L242,110 L244,110 L245,109 L248,109 L249,108 L252,108 L253,107 L255,107 L256,106 L260,106 L261,105 L264,105 L265,104 L270,104 L271,103 L277,103 L278,102 L284,102 L285,101 L296,101 L297,100 L326,100 L327,101 L337,101 L338,102 L343,102 L344,103 L349,103 L350,104 L354,104 L355,105 L358,105 L359,106 L362,106 L363,107 L366,107 L367,108 L369,108 L370,109 L373,109 L374,110 L375,110 L376,111 L378,111 L379,112 L380,112 L381,113 L383,113 L384,114 L385,114 L386,115 L387,115 L388,116 L390,116 L391,117 L392,117 L393,118 L394,118 L395,119 L396,119 L398,121 L399,121 L400,122 L401,122 L402,123 L403,123 L405,125 L406,125 L408,127 L409,127 L411,129 L412,129 L415,132 L416,132 L421,137 L422,137 L436,151 L436,152 L440,156 L440,157 L442,159 L442,160 L444,162 L444,163 L446,165 L446,166 L448,168 L448,169 L449,170 L449,171 L450,172 L450,173 L451,174 L451,175 L452,176 L452,177 L453,178 L453,180 L454,181 L454,182 L455,183 L455,185 L456,186 L456,187 L457,188 L457,191 L458,192 L458,194 L459,195 L459,198 L460,199 L460,202 L461,203 L461,208 L462,209 L462,217 L463,218 L463,237 L462,238 L462,248 L461,249 L461,253 L460,254 L460,258 L459,259 L459,261 L458,262 L458,265 L457,266 L457,267 L456,268 L456,270 L455,271 L455,273 L454,274 L454,275 L453,276 L453,277 L452,278 L452,279 L451,280 L451,281 L450,282 L450,283 L449,284 L449,285 L447,287 L447,288 L446,289 L446,290 L444,292 L444,293 L442,295 L442,296 L439,299 L439,300 L435,304 L435,305 L428,312 L428,313 L408,333 L407,333 L398,342 L397,342 L391,348 L390,348 L383,355 L382,355 L377,360 L376,360 L371,365 L370,365 L365,370 L365,371 L364,372 L364,513 L365,514 L365,515 L367,517 L368,517 L369,518 L424,518 L425,517 L426,517 L428,515 L428,514 L429,513 L429,401 L432,398 L433,398 L440,391 L441,391 L450,382 L451,382 L480,353 L480,352 L485,347 L485,346 L489,342 L489,341 L493,337 L493,336 L495,334 L495,333 L498,330 L498,329 L500,327 L500,326 L501,325 L501,324 L503,322 L503,321 L504,320 L504,319 L506,317 L506,316 L507,315 L507,314 L508,313 L508,312 L509,311 L509,310 L510,309 L510,308 L511,307 L511,306 L512,305 L512,304 L513,303 L513,302 L514,301 L514,299 L515,298 L515,297 L516,296 L516,294 L517,293 L517,292 L518,291 L518,289 L519,288 L519,286 L520,285 L520,283 L521,282 L521,279 L522,278 L522,275 L523,274 L523,271 L524,270 L524,266 L525,265 L525,260 L526,259 L526,253 L527,252 L527,241 L528,240 L528,215 L527,214 L527,204 L526,203 L526,197 L525,196 L525,192 L524,191 L524,187 L523,186 L523,182 L522,181 L522,179 L521,178 L521,175 L520,174 L520,172 L519,171 L519,169 L518,168 L518,165 L517,164 L517,163 L516,162 L516,160 L515,159 L515,157 L514,156 L514,155 L513,154 L513,153 L512,152 L512,151 L511,150 L511,148 L510,147 L510,146 L509,145 L509,144 L508,143 L508,142 L507,141 L507,140 L506,139 L506,138 L504,136 L504,135 L503,134 L503,133 L501,131 L501,130 L500,129 L500,128 L498,126 L498,125 L496,123 L496,122 L493,119 L493,118 L490,115 L490,114 L487,111 L487,110 L478,101 L478,100 L472,94 L471,94 L462,85 L461,85 L457,81 L456,81 L453,78 L452,78 L449,75 L448,75 L446,73 L445,73 L443,71 L442,71 L440,69 L439,69 L438,68 L437,68 L436,67 L435,67 L433,65 L432,65 L431,64 L430,64 L429,63 L428,63 L427,62 L426,62 L425,61 L424,61 L423,60 L422,60 L420,58 L418,58 L417,57 L416,57 L415,56 L414,56 L413,55 L412,55 L411,54 L409,54 L408,53 L407,53 L406,52 L404,52 L403,51 L402,51 L401,50 L399,50 L398,49 L396,49 L395,48 L393,48 L392,47 L390,47 L389,46 L387,46 L386,45 L383,45 L382,44 L380,44 L379,43 L376,43 L375,42 L372,42 L371,41 L367,41 L366,40 L362,40 L361,39 L356,39 L355,38 L350,38 L349,37 L341,37 L340,36 L331,36 L330,35 Z" fill="url(#IconifyId1813088fe1fbc01fb466)" stroke="none" /></svg>